<?xml version="1.0" ?><svg height="48" id="svg6485" version="1.1" viewBox="0 0 48 48" width="48" xmlns="http://www.w3.org/2000/svg" xmlns:cc="http://creativecommons.org/ns#" xmlns:dc="http://purl.org/dc/elements/1.1/" xmlns:inkscape="http://www.inkscape.org/namespaces/inkscape" xmlns:rdf="http://www.w3.org/1999/02/22-rdf-syntax-ns#" xmlns:sodipodi="http://sodipodi.sourceforge.net/DTD/sodipodi-0.dtd" xmlns:svg="http://www.w3.org/2000/svg"><defs id="defs6487"/><g id="layer1" transform="translate(0,-1004.3622)"><text id="text4366" style="font-style:normal;font-weight:normal;font-size:11.25px;line-height:125%;font-family:Sans;letter-spacing:0px;word-spacing:0px;fill:#000000;fill-opacity:1;stroke:none;stroke-width:1px;stroke-linecap:butt;stroke-linejoin:miter;stroke-opacity:1" x="12" xml:space="preserve" y="1036.3622"><tspan id="tspan4368" x="12" y="1036.3622"/></text><g id="text4981" style="font-style:normal;font-variant:normal;font-weight:normal;font-stretch:normal;font-size:12.37186241px;line-height:125%;font-family:'Roboto Condensed';-inkscape-font-specification:'Roboto Condensed, ';letter-spacing:0px;word-spacing:0px;fill:#000000;fill-opacity:1;stroke:none;stroke-width:1px;stroke-linecap:butt;stroke-linejoin:miter;stroke-opacity:1" transform="scale(1.1477838,0.87124422)"/><g id="g6132"><g id="g5964" transform="translate(640.02794,259.17156)"><path d="m -616.02794,745.19064 c -13.25187,0 -24,10.74825 -24,24 0,13.2519 10.74813,24 24,24 13.25187,0 24,-10.7481 24,-24 0,-13.25175 -10.74813,-24 -24,-24 z m 0,1.5 c 12.42359,0 22.5,10.07655 22.5,22.5 0,12.4236 -10.07641,22.5 -22.5,22.5 -12.42359,0 -22.5,-10.0764 -22.5,-22.5 0,-12.42345 10.07641,-22.5 22.5,-22.5 z" id="path5827" style="color:#000000;font-style:normal;font-variant:normal;font-weight:normal;font-stretch:normal;font-size:medium;line-height:normal;font-family:sans-serif;text-indent:0;text-align:start;text-decoration:none;text-decoration-line:none;text-decoration-style:solid;text-decoration-color:#000000;letter-spacing:normal;word-spacing:normal;text-transform:none;direction:ltr;block-progression:tb;writing-mode:lr-tb;baseline-shift:baseline;text-anchor:start;white-space:normal;clip-rule:nonzero;display:inline;overflow:visible;visibility:visible;opacity:1;isolation:auto;mix-blend-mode:normal;color-interpolation:sRGB;color-interpolation-filters:linearRGB;solid-color:#000000;solid-opacity:1;fill:#9448f7;fill-opacity:1;fill-rule:nonzero;stroke:none;stroke-width:0.99999994;stroke-linecap:round;stroke-linejoin:round;stroke-miterlimit:4;stroke-dasharray:none;stroke-dashoffset:0;stroke-opacity:1;color-rendering:auto;image-rendering:auto;shape-rendering:auto;text-rendering:auto;enable-background:accumulate"/><path d="m -616.02794,749.44059 c -10.90519,0 -19.75,8.84505 -19.75,19.75005 0,10.90515 8.84481,19.75005 19.75,19.75005 10.90519,0 19.75,-8.8449 19.75,-19.75005 0,-10.905 -8.84481,-19.75005 -19.75,-19.75005 z" id="path5829" style="color:#000000;font-style:normal;font-variant:normal;font-weight:normal;font-stretch:normal;font-size:medium;line-height:normal;font-family:sans-serif;text-indent:0;text-align:start;text-decoration:none;text-decoration-line:none;text-decoration-style:solid;text-decoration-color:#000000;letter-spacing:normal;word-spacing:normal;text-transform:none;direction:ltr;block-progression:tb;writing-mode:lr-tb;baseline-shift:baseline;text-anchor:start;white-space:normal;clip-rule:nonzero;display:inline;overflow:visible;visibility:visible;opacity:1;isolation:auto;mix-blend-mode:normal;color-interpolation:sRGB;color-interpolation-filters:linearRGB;solid-color:#000000;solid-opacity:1;fill:#9448f7;fill-opacity:1;fill-rule:nonzero;stroke:none;stroke-width:0.99999994;stroke-linecap:round;stroke-linejoin:round;stroke-miterlimit:4;stroke-dasharray:none;stroke-dashoffset:0;stroke-opacity:1;color-rendering:auto;image-rendering:auto;shape-rendering:auto;text-rendering:auto;enable-background:accumulate"/><path d="m -616.02794,749.44059 c -10.90519,0 -19.75,8.84505 -19.75,19.75005 0,5.4579 2.21752,10.39755 5.798,13.9728 l 27.92477,-27.92475 c -3.57517,-3.5805 -8.51487,-5.7981 -13.97277,-5.7981 z" id="path5831" style="color:#000000;clip-rule:nonzero;display:inline;overflow:visible;visibility:visible;opacity:1;isolation:auto;mix-blend-mode:normal;color-interpolation:sRGB;color-interpolation-filters:linearRGB;solid-color:#000000;solid-opacity:1;fill:#763ece;fill-opacity:1;fill-rule:nonzero;stroke:none;stroke-width:1.5;stroke-linecap:butt;stroke-linejoin:miter;stroke-miterlimit:4;stroke-dasharray:none;stroke-dashoffset:0;stroke-opacity:1;color-rendering:auto;image-rendering:auto;shape-rendering:auto;text-rendering:auto;enable-background:accumulate"/></g><g id="g5462" transform="translate(0.3991528,-0.40001648)"><path d="m 32.105469,10 c -0.129887,0 -0.25387,0.05498 -0.345703,0.146484 l -1.472657,1.47461 c -0.05671,0.037 -0.105226,0.08598 -0.142578,0.142578 l -0.408203,0.408203 c -1.097752,1.0977 -1.416903,2.668797 -1.013672,4.091797 -0.02089,0.016 -0.04048,0.03373 -0.05859,0.05273 l -7.638671,7.638672 c -0.04789,0.034 -0.08954,0.07505 -0.123047,0.123047 l -1.416016,1.416016 c -0.05226,0.035 -0.09733,0.08101 -0.132812,0.132812 L 18.230469,26.75 15.5,24.019531 c -0.09599,-0.095 -0.226311,-0.147131 -0.361328,-0.144531 -0.129612,0 -0.253557,0.05293 -0.345703,0.144531 l -3.021485,3.023438 -0.335937,0.333984 c -0.88244,0.8824 -1.317392,2.604481 -1.416016,4.425781 -0.098624,1.8212 0.172905,3.7452 1.302735,4.875 1.129818,1.1298 3.055686,1.403288 4.876953,1.304688 1.821267,-0.099 3.541389,-0.535569 4.423828,-1.417969 l 0.335937,-0.333984 3.021485,-3.021485 c 0.195184,-0.1953 0.195184,-0.511831 0,-0.707031 L 21.25,29.771484 22.371094,28.648438 c 0.04842,-0.033 0.09073,-0.07399 0.125,-0.121094 l 1.417968,-1.417969 c 0.05068,-0.035 0.09439,-0.07996 0.128907,-0.130859 l 7.642578,-7.642578 c 0.01842,-0.018 0.0354,-0.03759 0.05078,-0.05859 1.423511,0.4038 2.99612,0.08598 4.09375,-1.011719 l 0.410156,-0.410156 c 0.05781,-0.038 0.107031,-0.08798 0.144532,-0.146485 l 1.46875,-1.46875 c 0.195184,-0.1953 0.195184,-0.511731 0,-0.707031 L 32.466797,10.146484 C 32.371137,10.050484 32.24077,9.9979 32.105469,10 Z m 0.0078,1.207031 4.679688,4.679688 -0.833985,0.835937 -4.68164,-4.679687 z M 30.570312,12.75 l 4.681641,4.679688 -0.128906,0.128906 c -1.239401,1.2399 -3.286772,1.20985 -4.589844,-0.09375 -1.303056,-1.303 -1.329195,-3.348591 -0.08984,-4.587891 z m -1.427734,4.501953 c 0.188609,0.3266 0.404319,0.642675 0.683594,0.921875 0.279502,0.2795 0.594869,0.496747 0.921875,0.685547 L 23.626953,25.980469 22.019531,24.375 Z m -13.996094,7.830078 2.376954,2.375 -1.09961,1.09961 c -0.073,0.073 -0.121447,0.167531 -0.138672,0.269531 l -0.476562,2.789062 c -0.05753,0.34 0.238294,0.634872 0.578125,0.576172 l 2.746093,-0.46875 -0.04102,0 c 0.132599,0 0.259759,-0.05298 0.353515,-0.146484 l 1.097657,-1.097656 2.376953,2.376953 -2.667969,2.667969 -0.335937,0.333984 c -0.472671,0.4726 -2.105755,1.036753 -3.771485,1.126953 -1.665729,0.09 -3.360383,-0.258772 -4.115234,-1.013672 -0.754839,-0.7548 -1.101921,-2.449534 -1.011719,-4.115234 0.0902,-1.6657 0.652329,-3.298785 1.125,-3.771485 L 12.478516,27.75 Z m 6.166016,0 1.607422,1.605469 -0.833984,0.835938 -1.607422,-1.607422 z m -1.541016,1.541016 1.607422,1.607422 -2.529297,2.527343 -1.935547,0.328126 0.292969,-1.898438 z" id="path5417" style="color:#000000;font-style:normal;font-variant:normal;font-weight:normal;font-stretch:normal;font-size:medium;line-height:normal;font-family:sans-serif;text-indent:0;text-align:start;text-decoration:none;text-decoration-line:none;text-decoration-style:solid;text-decoration-color:#000000;letter-spacing:normal;word-spacing:normal;text-transform:none;direction:ltr;block-progression:tb;writing-mode:lr-tb;baseline-shift:baseline;text-anchor:start;white-space:normal;clip-rule:nonzero;display:inline;overflow:visible;visibility:visible;opacity:1;isolation:auto;mix-blend-mode:normal;color-interpolation:sRGB;color-interpolation-filters:linearRGB;solid-color:#000000;solid-opacity:1;fill:#ffffff;fill-opacity:1;fill-rule:nonzero;stroke:none;stroke-width:0.99999994;stroke-linecap:round;stroke-linejoin:round;stroke-miterlimit:4;stroke-dasharray:none;stroke-dashoffset:0;stroke-opacity:1;color-rendering:auto;image-rendering:auto;shape-rendering:auto;text-rendering:auto;enable-background:accumulate" transform="translate(0,1004.3622)"/></g></g></g></svg>